<svg width="300" height="300" viewBox="0 0 79.375 79.375" xml:space="preserve" xmlns="http://www.w3.org/2000/svg"><path style="fill:#cabdab;stroke-width:.264583;fill-opacity:1" d="M0 .252h79.375v79.375H0z"/><path style="fill:none;stroke:#1e2d35;stroke-width:1.67579" d="M67.851 43.83c.155.253.771 1.25.712 2.064-.059.81-.294 1.378-1.488 1.354-2.218-.044-4.873-.759-7.228-.534-3.824.365-8.3 1.717-11.619 3.377-2.284 1.142-4.125 2.552-5.939 4.063-.553.461-1.71 1.36-2.582 1.35-1.406-.016-2.497-1.5-3.614-2.345-2.113-1.6-5.633-3.472-8.263-4.471-3.523-1.339-7.048-1.76-10.844-1.76-2.407 0-4.288.477-6.197.517v-.558c.017-1.702.29-1.533.5-3.057.096-.7.062-1.027.166-1.807.187-1.405.288-3.21.477-4.648.404-3.08.378-6.214.738-9.295.176-1.505-.086-5.882 1.491-6.561 1.611-.694 4.137-.669 5.923-.669 5.163 0 10.637 1.632 14.976 4.413 1.257.806 3.735 2.466 4.382 3.635.688 1.243.265 2.815.265 4.346v11.102c0 1.376.006 3.938 0 5.164-.005 1.195-.106 1.617 0 2.582.587-.266 1.176-.41 2.066-1.1.71-.55 1.792-1.57 2.582-2.169 2.455-1.859 5.335-3.276 8.262-4.297 3.67-1.28 7.632-1.579 11.361-1.139.676.08 1.14.147 1.807.191.918.062 1.427.188 2.324-.006-.973-4.087-.962-11.423-1.473-16.267-.127-1.214-.196-2.7-.315-3.873-.057-.563-.03-1.199-.47-1.651-.89-.918-2.898-.61-4.197-.782-5.77-.76-11.877 1.143-16.783 3.95-2.02 1.156-3.52 2.43-5.164 3.647m27.111-2.84c1.774.002 2.456-.35 3.09 1.296.694 1.8.383 4.536.635 6.45.091.699.117 1.148.17 1.808.098 1.21.275 2.657.42 3.873.192 1.601.346 3.452.55 5.163.165 1.37.49 3.064.547 4.39.033.75.155 1.622-.145 2.275-.368.799-1.14.614-1.91.5-1.66-.246-3.701-.547-5.422-.815-5.543-.864-11.697.633-16.525 3.284-2.662 1.462-5.133 4.487-8.262 4.564-2.83.069-4.492-1.755-6.713-3.264-.884-.601-1.647-1.091-2.582-1.571-4.424-2.274-10.709-3.696-15.75-2.978-1.74.248-4.006.56-5.68.824-.645.101-1.627.357-1.986-.323-.297-.564-.094-1.173-.084-1.722.009-.492.16-2.495.218-3.098.253-2.618.536-5.272.891-8.004.183-1.41.328-2.81.42-4.131.136-1.938.237-4.605.598-6.455.196-1 .557-1.437 1.495-1.749.646-.214 1.396-.265 1.804-.317m4.39.517c6.757-.534 12.367.871 18.073 4.389m9.295 0c5.736-3.795 11.359-4.678 18.074-4.39M16.728 29.63c6.59-.833 12.88.518 18.332 4.39m9.037 0c3.546-2.39 7.587-4.175 11.877-4.604 2.036-.204 5.105-.169 6.713.214m-46.476 3.357c1.813-.47 5.232-.757 7.488-.358 3.97.701 8.471 2.845 11.62 4.747m8.778 0c5.88-3.628 11.648-5.525 18.59-4.647m-46.476 3.098c6.375-1.183 13.857.515 18.849 4.648m9.295 0c4.955-3.809 12.348-6.134 18.59-4.648m-46.992 3.098c1.945-.362 4.695-.662 6.972-.278 4.472.753 8.785 2.41 12.393 5.184m9.037 0c3.488-2.759 7.479-4.402 11.877-5.143 2.516-.424 5.035-.449 7.23.496m-51.898 4.905c1.646-.221 5.492-.785 7.746-.774 2 .01 3.553.383 5.68.865 3.3.746 6.43 2.025 9.295 3.975.924.629 2.335 1.972 3.099 2.576.906.716 1.47.751 2.065.846m28.66-4.39L69.4 48.22"/></svg>